{"title":"All Quiet on the Western Front (1979) DVDRip XviD AC3 peaSoup","uid":8816847,"size":734636032,"categoryP":"video","categoryS":"movies","magnet":"?xt=urn:btih:32fc37f32d40290f108c5ec7e9592e427f877659&amp;dn=All+Quiet+on+the+Western+Front+%281979%29+DVDRip+XviD+AC3+peaSoup&amp;tr=udp%3A%2F%2Ftracker.openbittorrent.com%3A80&amp;tr=udp%3A%2F%2Fopen.demonii.com%3A1337&amp;tr=udp%3A%2F%2Ftracker.coppersurfer.tk%3A6969&amp;tr=udp%3A%2F%2Fexodus.desync.com%3A6969","seeders":25,"leechers":3,"uploader":"peaSoup","files":-1,"time":1376606255,"description":"Storyline\n\nPaul Baumer is a young German who, along with his graduating high school classmates, enlist in the German Imperial Army during the First World War. Originally thinking war would be a great adventure, Paul and his friends discover exactly the opposite as the war drags on and one by one the members of the class are killed in action until only Paul remains.                                                            &lt;a href=&quot; http://imageshack.us/a/img853/4990/wzc4.jpg&quot; rel=&quot;nofollow&quot; target=&quot;_NEW&quot;&gt; http://imageshack.us/a/img853/4990/wzc4.jpg&lt;/a&gt;                                         &lt;a href=&quot; http://imageshack.us/a/img845/3727/koq6.jpg&quot; rel=&quot;nofollow&quot; target=&quot;_NEW&quot;&gt; http://imageshack.us/a/img845/3727/koq6.jpg&lt;/a&gt;                                         &lt;a href=&quot; http://imageshack.us/a/img585/934/ulem.jpg&quot; rel=&quot;nofollow&quot; target=&quot;_NEW&quot;&gt; http://imageshack.us/a/img585/934/ulem.jpg&lt;/a&gt;                                          &lt;a href=&quot; http://imageshack.us/a/img42/2511/jjeb.jpg&quot; rel=&quot;nofollow&quot; target=&quot;_NEW&quot;&gt; http://imageshack.us/a/img42/2511/jjeb.jpg&lt;/a&gt;                                          &lt;a href=&quot; http://imageshack.us/a/img5/2509/9bq5.jpg&quot; rel=&quot;nofollow&quot; target=&quot;_NEW&quot;&gt; http://imageshack.us/a/img5/2509/9bq5.jpg&lt;/a&gt;                                            Format                                   : AVI\nFormat/Info                              : Audio Video Interleave\nFile size                                : 701 MiB\nDuration                                 : 2h 3mn\nOverall bit rate                         : 792 Kbps\nWriting application                      : VirtualDubMod 1.5.4.1 (build 2178/release)\nWriting library                          : VirtualDubMod build 2178/release\n\nVideo\nID                                       : 0\nFormat                                   : MPEG-4 Visual\nFormat profile                           : Advanced Simple@L5\nFormat settings, BVOP                    : 1\nFormat settings, QPel                    : No\nFormat settings, GMC                     : No warppoints\nFormat settings, Matrix                  : Custom\nCodec ID                                 : XVID\nCodec ID/Hint                            : XviD\nDuration                                 : 2h 3mn\nBit rate                                 : 593 Kbps\nWidth                                    : 464 pixels\nHeight                                   : 352 pixels\nDisplay aspect ratio                     : 4:3\nFrame rate                               : 25.000 fps\nColor space                              : YUV\nChroma subsampling                       : 4:2:0\nBit depth                                : 8 bits\nScan type                                : Progressive\nCompression mode                         : Lossy\nBits/(Pixel*Frame)                       : 0.145\nStream size                              : 525 MiB (75%)\nWriting library                          : XviD 1.2.1 (UTC 2008-12-04)\n\nAudio\nID                                       : 1\nFormat                                   : AC-3\nFormat/Info                              : Audio Coding 3\nMode extension                           : CM (complete main)\nFormat settings, Endianness              : Big\nCodec ID                                 : 2000\nDuration                                 : 2h 3mn\nBit rate mode                            : Constant\nBit rate                                 : 192 Kbps\nChannel(s)                               : 2 channels\nChannel positions                        : Front: L R\nSampling rate                            : 48.0 KHz\nBit depth                                : 16 bits\nCompression mode                         : Lossy\nDelay relative to video                  : 8ms\nStream size                              : 170 MiB (24%)\nAlignment                                : Split accross interleaves\nInterleave, duration                     : 96 ms (2.40 video frames)\nInterleave, preload duration             : 96 ms\n\n","torrent":{"xt":"urn:btih:32fc37f32d40290f108c5ec7e9592e427f877659","amp;dn":"All+Quiet+on+the+Western+Front+%281979%29+DVDRip+XviD+AC3+peaSoup","amp;tr":["udp%3A%2F%2Ftracker.openbittorrent.com%3A80","udp%3A%2F%2Fopen.demonii.com%3A1337","udp%3A%2F%2Ftracker.coppersurfer.tk%3A6969","udp%3A%2F%2Fexodus.desync.com%3A6969"],"infoHash":"32fc37f32d40290f108c5ec7e9592e427f877659","infoHashBuffer":{"type":"Buffer","data":[50,252,55,243,45,64,41,15,16,140,94,199,233,89,46,66,127,135,118,89]},"announce":[],"urlList":[]}}